<svg xmlns="http://www.w3.org/2000/svg" viewBox="0 0 183.96 68.45"><defs><style>.cls-1{fill:#fff;}</style></defs><g id="Layer_2" data-name="Layer 2"><g id="Layer_1-2" data-name="Layer 1"><path class="cls-1" d="M86.27,40V15.17h0V5.39a10.9,10.9,0,0,1,.63-4.08,1.5,1.5,0,0,0,.15-.55.68.68,0,0,0-.7-.66H78.76a.67.67,0,0,0-.69.66,1.49,1.49,0,0,0,.14.55,10.93,10.93,0,0,1,.63,4.08v8.27h0v3.42a1.7,1.7,0,0,1-1.7,1.71H72.6a1.7,1.7,0,0,1-1.71-1.71V15.17h0V5.39a10.9,10.9,0,0,1,.63-4.08,1.5,1.5,0,0,0,.15-.55A.68.68,0,0,0,71,.1H63.39a.67.67,0,0,0-.7.66,1.49,1.49,0,0,0,.14.55,10.93,10.93,0,0,1,.63,4.08v8.27h0V40A10.9,10.9,0,0,1,62.83,44a1.49,1.49,0,0,0-.14.56.67.67,0,0,0,.7.65H71a.68.68,0,0,0,.7-.65,1.5,1.5,0,0,0-.15-.56A10.9,10.9,0,0,1,70.89,40v-12a1.7,1.7,0,0,1,1.71-1.7h4.54a1.7,1.7,0,0,1,1.7,1.7V40A10.9,10.9,0,0,1,78.21,44a1.49,1.49,0,0,0-.14.56.67.67,0,0,0,.69.65h7.59a.68.68,0,0,0,.7-.65A1.5,1.5,0,0,0,86.9,44,10.9,10.9,0,0,1,86.27,40Z"/><path class="cls-1" d="M121.16,44.87a6,6,0,0,1-.48-1.09c-.42-1.15-1.57-5.08-1.57-5.08h0L111,4.33a5.28,5.28,0,0,1,.09-3.25,1.16,1.16,0,0,0,.12-.45.54.54,0,0,0-.56-.52h-9a.54.54,0,0,0-.56.52,1.16,1.16,0,0,0,.12.45,5.26,5.26,0,0,1,.08,3.29h0l-8.1,34.41c-.16.52-1.16,3.94-1.55,5a6.76,6.76,0,0,1-.48,1.09c-.14.23,0,.48.25.48h.81l7.43,0h.64a.54.54,0,0,0,.56-.52,1.29,1.29,0,0,0-.11-.44,5.11,5.11,0,0,1-.15-3l1-4.92a1.14,1.14,0,0,1,1.11-.9h6.9a1.12,1.12,0,0,1,1.1.9l.94,4.62h0a5.26,5.26,0,0,1-.09,3.29,1.29,1.29,0,0,0-.11.44.54.54,0,0,0,.56.52h.64l7.44,0h.81C121.2,45.35,121.3,45.1,121.16,44.87ZM107.65,28.12h-3a1.12,1.12,0,0,1-1.1-1.35L106.17,14l2.59,12.78A1.13,1.13,0,0,1,107.65,28.12Z"/><path class="cls-1" d="M58.4,44.87a6,6,0,0,1-.48-1.09c-.43-1.15-1.57-5.08-1.57-5.08h0L48.25,4.33a5.28,5.28,0,0,1,.09-3.25,1.16,1.16,0,0,0,.12-.45A.54.54,0,0,0,47.9.11h-9a.54.54,0,0,0-.56.52,1.16,1.16,0,0,0,.12.45,5.26,5.26,0,0,1,.08,3.29h0l-8.1,34.41c-.16.52-1.16,3.94-1.55,5a6,6,0,0,1-.49,1.09.3.3,0,0,0,.26.48h.8l7.44,0h.64a.54.54,0,0,0,.56-.52,1.29,1.29,0,0,0-.11-.44,5.11,5.11,0,0,1-.15-3l1-4.92a1.13,1.13,0,0,1,1.1-.9h6.91a1.12,1.12,0,0,1,1.1.9l.94,4.62h0a5.26,5.26,0,0,1-.09,3.29,1.29,1.29,0,0,0-.11.44.54.54,0,0,0,.55.52h.65l7.44,0h.81C58.44,45.35,58.54,45.1,58.4,44.87ZM44.89,28.12h-3a1.13,1.13,0,0,1-1.11-1.35L43.41,14,46,26.77A1.13,1.13,0,0,1,44.89,28.12Z"/><path class="cls-1" d="M183.9,44.87a6.76,6.76,0,0,1-.48-1.09c-.42-1.15-1.57-5.08-1.57-5.08h0l-8.1-34.38a5.21,5.21,0,0,1,.1-3.25A1.35,1.35,0,0,0,174,.63a.54.54,0,0,0-.56-.52h-9a.54.54,0,0,0-.56.52,1.16,1.16,0,0,0,.12.45,5.33,5.33,0,0,1,.09,3.29h0L156,38.78c-.16.52-1.16,3.94-1.55,5a6,6,0,0,1-.48,1.09c-.14.23,0,.48.25.48H155l7.43,0h.64a.54.54,0,0,0,.56-.52,1.29,1.29,0,0,0-.11-.44,5.11,5.11,0,0,1-.15-3l1-4.92a1.14,1.14,0,0,1,1.11-.9h6.9a1.12,1.12,0,0,1,1.1.9l.94,4.62h0a5.26,5.26,0,0,1-.09,3.29,1.29,1.29,0,0,0-.11.44.54.54,0,0,0,.56.52h.64l7.44,0h.81C183.94,45.35,184,45.1,183.9,44.87ZM170.39,28.12h-3a1.12,1.12,0,0,1-1.1-1.35L168.91,14l2.59,12.78A1.13,1.13,0,0,1,170.39,28.12Z"/><path class="cls-1" d="M23.51,30H15.93a.68.68,0,0,0-.7.65,1.71,1.71,0,0,0,.14.55A11,11,0,0,1,16,35.22v.87a1.72,1.72,0,0,1-1.72,1.72H9.15a1.72,1.72,0,0,1-1.72-1.72V9.15A1.72,1.72,0,0,1,9.15,7.43h5.14A1.72,1.72,0,0,1,16,9.15V10a11,11,0,0,1-.64,4.05,1.84,1.84,0,0,0-.14.56.68.68,0,0,0,.7.65h7.58a.68.68,0,0,0,.7-.65,1.84,1.84,0,0,0-.14-.56A11.11,11.11,0,0,1,23.43,10V8.72h0V4.11a1.19,1.19,0,0,0-.34-.83L20.15.34A1.17,1.17,0,0,0,19.32,0H4.11a1.19,1.19,0,0,0-.83.34L.34,3.28A1.19,1.19,0,0,0,0,4.11v37A1.17,1.17,0,0,0,.34,42l2.94,2.94a1.2,1.2,0,0,0,.83.35H19.32a1.18,1.18,0,0,0,.83-.35L23.09,42a1.17,1.17,0,0,0,.34-.83v-4.6h0V35.24a11.14,11.14,0,0,1,.64-4.08,1.71,1.71,0,0,0,.14-.55A.68.68,0,0,0,23.51,30Z"/><path class="cls-1" d="M146.31,22.34l3.24-3.24a.48.48,0,0,0,.14-.34V3.93a.48.48,0,0,0-.14-.34L146.21.24a.48.48,0,0,0-.34-.14H126.8a.67.67,0,0,0-.69.66,1.49,1.49,0,0,0,.14.55,10.93,10.93,0,0,1,.63,4.08v8.27h0V40a10.9,10.9,0,0,1-.63,4.08,1.49,1.49,0,0,0-.14.56.67.67,0,0,0,.69.65h19.07a.48.48,0,0,0,.34-.14l3.35-3.35a.48.48,0,0,0,.14-.34V26.59a.51.51,0,0,0-.13-.34L146.31,23A.48.48,0,0,1,146.31,22.34Zm-4.05,13.22a1.7,1.7,0,0,1-1.7,1.7H136a1.7,1.7,0,0,1-1.71-1.7V27.92a1.7,1.7,0,0,1,1.71-1.7h4.54a1.7,1.7,0,0,1,1.7,1.7Zm0-18.47a1.7,1.7,0,0,1-1.7,1.7H136a1.7,1.7,0,0,1-1.71-1.7V9.45A1.71,1.71,0,0,1,136,7.74h4.54a1.71,1.71,0,0,1,1.7,1.71Z"/><path class="cls-1" d="M46.1,59H49c1.79,0,2.62,1,2.62,2.34A1.67,1.67,0,0,1,50,63.21v0A2.11,2.11,0,0,1,52,65.57a2.57,2.57,0,0,1-2.71,2.72H46.1Zm1.95,3.6h.45c.73,0,1.09-.34,1.09-1s-.36-.93-1.09-.93h-.45Zm0,4h.73c.83,0,1.21-.46,1.19-1.1a1.06,1.06,0,0,0-1.19-1.15h-.73Z"/><path class="cls-1" d="M55.48,59h3.08a2.83,2.83,0,0,1,2.77,3,2.42,2.42,0,0,1-1.92,2.56l2.33,3.74H59.51l-2-3.61h0v3.61h-2Zm2,4.11h.64c.8,0,1.26-.38,1.26-1.15s-.46-1.16-1.26-1.16h-.64Z"/><path class="cls-1" d="M65.14,68.29V59h4.62v1.8H67.09v1.72h2.67v1.8H67.09V66.5h2.67v1.79Z"/><path class="cls-1" d="M77.75,59h1.72l1.23,5.88h0L81.9,59h2l-2.24,9.29H79.9l-1.31-6.41h0l-1.29,6.41H75.57L73.28,59h2l1.2,5.88h0Z"/><path class="cls-1" d="M89.05,59v9.29h-2V59Z"/><path class="cls-1" d="M99.14,59v9.29H97.5l-2.75-6.18h0v6.18H93V59h1.82l2.57,5.7h0V59Z"/><path class="cls-1" d="M107,62.29c0-.9-.49-1.64-1.44-1.64-.75,0-1.44.79-1.44,3s.69,3,1.44,3A1.43,1.43,0,0,0,107,65h-1.63v-1.8H109V65a3.24,3.24,0,0,1-3.44,3.42c-2.08,0-3.44-1.57-3.44-4.8s1.36-4.8,3.44-4.8A3.35,3.35,0,0,1,109,62.29Z"/><path class="cls-1" d="M122.73,62.69c0-1.66-.54-2-1.29-2s-1.59.79-1.59,3,.7,3,1.59,3,1.24-1,1.29-2h2c0,2.1-1.21,3.76-3.44,3.76s-3.44-1.57-3.44-4.8,1.36-4.8,3.44-4.8c2.3,0,3.47,1.68,3.44,3.84Z"/><path class="cls-1" d="M130.85,58.85c2.33,0,3.49,1.9,3.49,4.8s-1.16,4.8-3.49,4.8-3.49-1.9-3.49-4.8S128.51,58.85,130.85,58.85Zm0,7.8c1,0,1.48-.82,1.48-3s-.48-3-1.48-3-1.49.82-1.49,3S129.85,66.65,130.85,66.65Z"/><path class="cls-1" d="M136.14,68.29V66.4h1.72v1.89Z"/></g></g></svg>